<svg id="visual" viewBox="0 0 900 600" width="900" height="600" xmlns="http://www.w3.org/2000/svg" xmlns:xlink="http://www.w3.org/1999/xlink" version="1.1"><path d="M620 600L755 600L755 545L557 545L557 491L728 491L728 436L665 436L665 382L485 382L485 327L710 327L710 273L521 273L521 218L710 218L710 164L719 164L719 109L638 109L638 55L755 55L755 0L900 0L900 55L900 55L900 109L900 109L900 164L900 164L900 218L900 218L900 273L900 273L900 327L900 327L900 382L900 382L900 436L900 436L900 491L900 491L900 545L900 545L900 600L900 600Z" fill="#fa7268"></path><path d="M485 600L485 600L485 545L422 545L422 491L521 491L521 436L467 436L467 382L359 382L359 327L539 327L539 273L413 273L413 218L476 218L476 164L593 164L593 109L440 109L440 55L539 55L539 0L756 0L756 55L639 55L639 109L720 109L720 164L711 164L711 218L522 218L522 273L711 273L711 327L486 327L486 382L666 382L666 436L729 436L729 491L558 491L558 545L756 545L756 600L621 600Z" fill="#ea5e66"></path><path d="M350 600L395 600L395 545L332 545L332 491L359 491L359 436L296 436L296 382L287 382L287 327L440 327L440 273L332 273L332 218L305 218L305 164L458 164L458 109L242 109L242 55L341 55L341 0L540 0L540 55L441 55L441 109L594 109L594 164L477 164L477 218L414 218L414 273L540 273L540 327L360 327L360 382L468 382L468 436L522 436L522 491L423 491L423 545L486 545L486 600L486 600Z" fill="#d84a64"></path><path d="M260 600L332 600L332 545L242 545L242 491L287 491L287 436L143 436L143 382L143 382L143 327L350 327L350 273L269 273L269 218L242 218L242 164L395 164L395 109L179 109L179 55L278 55L278 0L342 0L342 55L243 55L243 109L459 109L459 164L306 164L306 218L333 218L333 273L441 273L441 327L288 327L288 382L297 382L297 436L360 436L360 491L333 491L333 545L396 545L396 600L351 600Z" fill="#c53762"></path><path d="M0 600L0 600L0 545L0 545L0 491L0 491L0 436L0 436L0 382L0 382L0 327L0 327L0 273L0 273L0 218L0 218L0 164L0 164L0 109L0 109L0 55L0 55L0 0L279 0L279 55L180 55L180 109L396 109L396 164L243 164L243 218L270 218L270 273L351 273L351 327L144 327L144 382L144 382L144 436L288 436L288 491L243 491L243 545L333 545L333 600L261 600Z" fill="#b0235f"></path></svg>